<svg xmlns="http://www.w3.org/2000/svg" height="24px" viewBox="0 -960 960 960" width="24px" fill="#e3e3e3"><path d="M0-192v-32q0-34 24.5-57t59.5-23h8q11 0 21 2.5t19 6.5q-11 16-17.5 34.5T108-226q0 35 19.5 61t49.5 38v12H32q-35 0-59.5-23T0-192Zm240 0v-12q29-8 49.5-34t19.5-61q0-21-6.5-39.5T285-318q9-4 19-6.5t21-2.5h8q35 0 59.5 23t24.5 57v32q0 34-24.5 57T368-144h-96q-35 0-59.5-23T240-192Zm320 0v-32q0-34 24.5-57t59.5-23h8q11 0 21 2.5t19 6.5q-11 16-17.5 34.5T588-226q0 35 19.5 61t49.5 38v12h-96q-35 0-59.5-23T560-192Zm-160-64q-66 0-113-47t-47-113q0-66 47-113t113-47q66 0 113 47t47 113q0 66-47 113t-113 47Zm0-80q33 0 56.5-23.5T480-416q0-33-23.5-56.5T400-496q-33 0-56.5 23.5T320-416q0 33 23.5 56.5T400-336Zm160-80q-66 0-113-47t-47-113q0-66 47-113t113-47q66 0 113 47t47 113q0 66-47 113t-113 47Zm0-80q33 0 56.5-23.5T640-576q0-33-23.5-56.5T560-656q-33 0-56.5 23.5T480-576q0 33 23.5 56.5T560-496ZM240-416q-66 0-113-47t-47-113q0-66 47-113t113-47q66 0 113 47t47 113q0 66-47 113t-113 47Zm0-80q33 0 56.5-23.5T320-576q0-33-23.5-56.5T240-656q-33 0-56.5 23.5T160-576q0 33 23.5 56.5T240-496Z"/></svg>
