<svg xmlns="http://www.w3.org/2000/svg" height="24px" viewBox="0 -960 960 960" width="24px" fill="#e3e3e3"><path d="M433-80q-27 0-46.5-19.5T367-146l-22-96q-19-8-37-19t-34-25l-90 38q-26 11-51-2.5T105-282l-67-115q-17-29-5.5-57t43.5-37l86-33q-2-12-3-24t-1-24q0-12 1-24t3-24l-86-33q-29-11-40.5-39T38-678l67-115q17-29 43.5-42.5T200-858l90 38q16-14 34-25t37-19l22-96q7-27 26.5-46.5T433-1026h134q27 0 46.5 19.5T629-960l22 96q19 8 37 19t34 25l90-38q26-11 51 2.5t43 42.5l67 115q17 29 5.5 57T883-522l-86 33q2 12 3 24t1 24q0 12-1 24t-3 24l86 33q29 11 40.5 39t-5.5 57l-67 115q-17 29-43.5 42.5T760-162l-90-38q-16 14-34 25t-37 19l-22 96q-7 27-26.5 46.5T567-80H433Zm67-80h120l20-88q37-8 70.5-24t61.5-41l85 36 60-103-73-58q6-17 9.5-35t3.5-37q0-19-3.5-37T814-658l73-58-60-103-85 36q-27-26-60.5-42T620-868l-20-88H500l-20 88q-37 8-70.5 24t-61.5 41l-85-36-60 103 73 58q-6 17-9.5 35t-3.5 37q0 19 3.5 37t9.5 35l-73 58 60 103 85-36q27 26 60.5 42t70.5 24l20 88Zm133-200q83 0 141.5-58.5T840-520q0-83-58.5-141.5T640-720q-83 0-141.5 58.5T440-520q0 83 58.5 141.5T640-320Zm0-80q-50 0-85-35t-35-85q0-50 35-85t85-35q50 0 85 35t35 85q0 50-35 85t-85 35Zm0-120Z"/></svg>
