<svg xmlns="http://www.w3.org/2000/svg" height="24px" viewBox="0 -960 960 960" width="24px" fill="#e3e3e3"><path d="M339.94-147.39q-66.06-28.39-115.07-77.35-49.02-48.96-77.44-114.93Q119-405.65 119-480.33q0-74.67 28.4-140.23 28.41-65.56 77.39-114.57 48.98-49.02 114.99-77.44Q405.79-841 480-841h27v330q8 6 11 14.27t3 16.85q0 15.88-12.5 28.38Q496-439 480-439t-28.5-12.5Q439-464 439-479.76q0-7.5 3-15.87T453-511v-110q-52 7-86 47t-34 94q0 61 43 104t104 43q61 0 104-43t43-104q0-33-13.5-62T577-591l38-38q32 28 49 66.02 17 38.02 17 82.98 0 84.33-58.26 142.67Q564.47-279 480.24-279 396-279 337.5-337.33 279-395.67 279-480q0-77 50.5-132.5T453-677v-107q-118 9-199 95.5T173-480q0 128 89.5 217.5T480-173q128 0 217.5-89.5T787-480q0-67-26-124.5T690-704l38-38q54 50 83.5 116.89Q841-558.21 841-480.3q0 74.3-28.39 140.36-28.39 66.06-77.35 115.07-48.96 49.02-114.43 77.44Q555.35-119 480.67-119q-74.67 0-140.73-28.39Z"/></svg>