<svg xmlns="http://www.w3.org/2000/svg" height="24px" viewBox="0 -960 960 960" width="24px" fill="#e3e3e3"><path d="M64-171v-83q0-33 15.5-55t42.5-35q53-26 107-42t134-16q80 0 133.5 16T603-344q27 13 42.5 35t15.5 55v83H64Zm682 0v-87q0-30-9.5-67.5T703-389q35 6 67.5 17.5T834-344q29 15 45.5 38.5T896-258v87H746ZM265.5-558.5Q226-598 226-655t39.5-96.5Q305-791 362-791t96.5 39.5Q498-712 498-655t-39.5 96.5Q419-519 362-519t-96.5-39.5Zm400 0Q626-519 569-519q-4 0-13-1t-13-3q20-29 30-62.5t10-69.5q0-36-10.5-69T543-787q6-2 13-3t13-1q57 0 96.5 39.5T705-655q0 57-39.5 96.5Z"/></svg>