<svg xmlns="http://www.w3.org/2000/svg" height="24px" viewBox="0 -960 960 960" width="24px" fill="#e3e3e3"><path d="M181-242q-34-43-53.5-93T101-440h54q6 44 22.5 84.5T221-280l-40 38Zm-80-278q7-54 27-105.5t55-92.5l38 38q-27 35-43.5 75.5T155-520h-54Zm336 418q-53-7-103-27.5T241-182l38-40q35 26 75 43t83 23v54ZM281-738l-40-40q43-34 93.5-53.5T439-858v54q-44 5-83.5 22T281-738Zm133 325q-27-27-27-67t27-67q27-27 67-27t67 27q27 27 27 67t-27 67q-27 27-67 27t-67-27Zm105 311v-54q43-6 84.5-23t75.5-43l40 40q-44 33-94.5 53T519-102Zm162-636q-35-26-75.5-43T521-804v-54q54 7 103.5 27t94.5 53l-38 40Zm96 496-38-38q27-35 43.5-75.5T805-440h54q-7 54-27 105.5T777-242Zm28-278q-6-44-22.5-84.5T739-680l40-38q34 43 53.5 93T859-520h-54Z"/></svg>