<svg xmlns="http://www.w3.org/2000/svg" height="24px" viewBox="0 -960 960 960" width="24px" fill="#e3e3e3"><path d="M264.5-100Q196-100 148-147.5t-48-116q0-68.5 48-116.5t116-48q24.3 0 46.15 6.5Q332-415 350-402q32-39 34-80t-30-79q-19 13-41.35 21-22.36 8-47.65 8-69 0-116.5-47.97T101-696.47Q101-765 148.5-813t116.03-48q68.53 0 116.5 48.1T429-696q0 25-8.5 48T399-606q38 32 79.5 30t80.5-33q-12.58-18-19.79-40.5Q532-672 532-696q0-68.38 48.1-115.69T697-859q67.87 0 115.44 47.44 47.56 47.43 47.56 116 0 68.56-47 116.06T697-532q-26 0-50.5-8T603-564q-32 39-31 82t35 83q19-13.57 41.5-21.29Q671-428 697-428q67.87 0 115.44 48Q860-332 860-263.5t-47 116Q766-100 697.14-100t-117-47.5Q532-195 532-264q0-26 7.71-49 7.72-23 21.29-42-40-34-82-34t-82 33q15.57 19 23.78 42.5Q429-290 429-264q0 69-48 116.5T264.5-100ZM697-580q47.58 0 81.29-34Q812-648 812-696t-33.71-81.5Q744.58-811 697-811q-48.42 0-82.71 33.5Q580-744 580-696q0 17 4.5 30t14.5 24l72-72q7.82-8 18.41-8t18.59 8q9 9 8.5 18.23-.5 9.22-8.5 17.77l-75 76q13 10 29.6 16 16.59 6 34.4 6Zm-432 0q16 0 30.5-5.5T322-601l-76-76q-8-9-8.5-18.5T246-714q9-9 18.73-9 9.72 0 18.27 9l77 77q11-13 16-27.9 5-14.89 5-31.1 0-48-34-82t-82-34q-48 0-82 34t-34 82q0 48 34 82t82 34Zm432 432q47.58 0 81.29-34Q812-216 812-264t-33.71-82q-33.71-34-81.29-34-16.43 0-31.21 5.5Q651-369 639-359l77 77q8 8 8.5 18.5T716-245q-8 8-19 8t-20-9l-76-76q-10 12-15.5 26.79Q580-280.43 580-264q0 48 34.29 82T697-148Zm-432.5-1q48.5 0 82.5-33.71T381-264q0-17.56-6.5-33.28Q368-313 358-326l-82 80q-8.73 9-18.87 9-10.13 0-19.13-9-9-9-9-18.23 0-9.22 9-17.77l79-79q-11-10-23.5-14t-29.5-4q-47 0-81 34t-34 81q0 47 34 81t81.5 34ZM481-454q10.58 0 17.79-7 7.21-7 7.21-18t-7.21-19q-7.21-8-17.79-8-11.42 0-19.21 8-7.79 8-7.79 19t7.79 18q7.79 7 19.21 7Z"/></svg>