<svg xmlns="http://www.w3.org/2000/svg" height="24px" viewBox="0 -960 960 960" width="24px" fill="#e3e3e3"><path d="M177-177q-17-17-17-43t17-43q17-17 43-17t43 17q17 17 17 43t-17 43q-17 17-43 17t-43-17Zm260 0q-17-17-17-43t17-43q17-17 43-17t43 17q17 17 17 43t-17 43q-17 17-43 17t-43-17Zm260 0q-17-17-17-43t17-43q17-17 43-17t43 17q17 17 17 43t-17 43q-17 17-43 17t-43-17ZM177-437q-17-17-17-43t17-43q17-17 43-17t43 17q17 17 17 43t-17 43q-17 17-43 17t-43-17Zm260 0q-17-17-17-43t17-43q17-17 43-17t43 17q17 17 17 43t-17 43q-17 17-43 17t-43-17Zm260 0q-17-17-17-43t17-43q17-17 43-17t43 17q17 17 17 43t-17 43q-17 17-43 17t-43-17ZM177-697q-17-17-17-43t17-43q17-17 43-17t43 17q17 17 17 43t-17 43q-17 17-43 17t-43-17Zm260 0q-17-17-17-43t17-43q17-17 43-17t43 17q17 17 17 43t-17 43q-17 17-43 17t-43-17Zm260 0q-17-17-17-43t17-43q17-17 43-17t43 17q17 17 17 43t-17 43q-17 17-43 17t-43-17Z"/></svg>