<svg xmlns="http://www.w3.org/2000/svg" height="24px" viewBox="0 -960 960 960" width="24px" fill="#e3e3e3"><path d="M613-793.5Q675-767 721-721t72.5 108Q820-551 820-480t-26.5 132.5Q767-286 721-240t-108 72q-62 26-133 26-36 0-78.5-8.5T328-178l42-42q23 12 53.5 18t56.5 6q119 0 202.5-82.5T766-480q0-119-83.5-202.5T480-766q-119 0-201.5 83.5T196-480q0 32 6 57t17 51l-42 42q-16-28-25.5-69.5T142-480q0-71 26-133t72-108q46-46 107.5-72.5T480-820q71 0 133 26.5ZM536-331v-166L183-144l-39-39 352-352H332v-54h258v258h-54Z"/></svg>