<svg xmlns="http://www.w3.org/2000/svg" height="24px" viewBox="0 -960 960 960" width="24px" fill="#e3e3e3"><path d="M141-140v-163h54v109h109v54H141Zm517 0v-54h109v-109h54v163H658ZM315.5-314.5Q247-383 247-480t68.5-165.5Q384-714 481-714t165.5 68.5Q715-577 715-480t-68.5 165.5Q578-246 481-246t-165.5-68.5ZM480.51-300Q555-300 608-352.51q53-52.5 53-127Q661-554 608-607t-127.49-53q-74.5 0-127 53Q301-554 301-479.51q0 74.5 52.51 127 52.5 52.51 127 52.51ZM141-657v-163h163v54H195v109h-54Zm626 0v-109H658v-54h163v163h-54ZM481-480Z"/></svg>