<svg xmlns="http://www.w3.org/2000/svg" height="24px" viewBox="0 -960 960 960" width="24px" fill="#e3e3e3"><path d="M340-147.5Q274-176 225-225t-77.5-115Q119-406 119-480q0-92 42-171.5T281-782q2 11 5 24.5t8 31.5q-58 44-89.5 108.5T173-480q0 128 89.5 217.5T480-173q128 0 217.5-89.5T787-480q0-73-32-137.5T665-726q5-17 8.5-30t4.5-26q78 51 120.5 131T841-480q0 74-28.5 140T735-225q-49 49-114.5 77.5t-140 28.5Q406-119 340-147.5Zm-2.5-190Q279-396 279-480q0-38 13.5-72.5T330-615q5 16 10 31l10 30q-9 17-13 36.5t-4 37.5q0 61 43 104t104 43q61 0 104-43t43-104q0-19-4.5-37.5T609-554q6-16 5-13.5t16-48.5q25 28 38 63t13 73q0 84-58.5 142.5T480-279q-84 0-142.5-58.5ZM451-633q-39-117-48.5-154t-9.5-73q0-36 25.5-61.5T480-947q36 0 61.5 25.5T567-860q0 36-9.5 73T509-633h-58Zm-18.5 200.5Q413-452 413-480t19.5-47.5Q452-547 480-547t47.5 19.5Q547-508 547-480t-19.5 47.5Q508-413 480-413t-47.5-19.5Z"/></svg>