<svg xmlns="http://www.w3.org/2000/svg" height="24px" viewBox="0 -960 960 960" width="24px" fill="#e3e3e3"><path d="M453-79v-66q-128-12-213-96.5T143-454H77v-54h66q12-128 97-213.5T453-819v-66h54v66q128 12 213 97.5T817-508h66v54h-66q-12 128-97 212.5T507-145v66h-54Zm229-202q82-82 82-201t-82-201q-82-82-201-82t-201 82q-82 82-82 201t82 201q82 82 201 82t201-82ZM385-386q-40-40-40-96t40-96q40-40 96-40t96 40q40 40 40 96t-40 96q-40 40-96 40t-96-40Zm153.5-38.5Q563-449 563-482t-24.5-57.5Q514-564 481-564t-57.5 24.5Q399-515 399-482t24.5 57.5Q448-400 481-400t57.5-24.5ZM481-482Z"/></svg>