<svg xmlns="http://www.w3.org/2000/svg" height="24px" viewBox="0 -960 960 960" width="24px" fill="#e3e3e3"><path d="M413.5-413.5Q386-441 386-480t27.5-66.5Q441-574 480-574t66.5 27.5Q574-519 574-480t-27.5 66.5Q519-386 480-386t-66.5-27.5Zm95-38Q520-463 520-480t-11.5-28.5Q497-520 480-520t-28.5 11.5Q440-497 440-480t11.5 28.5Q463-440 480-440t28.5-11.5ZM226-140q-36.73 0-61.36-24.64Q140-189.27 140-226v-132h54v132q0 12 10 22t22 10h132v54H226Zm376 0v-54h132q12 0 22-10t10-22v-132h54v132q0 36.73-24.64 61.36Q770.72-140 734-140H602ZM140-602v-132q0-36.72 24.64-61.36Q189.27-820 226-820h132v54H226q-12 0-22 10t-10 22v132h-54Zm626 0v-132q0-12-10-22t-22-10H602v-54h132q36.72 0 61.36 24.64T820-734v132h-54Z"/></svg>