<svg xmlns="http://www.w3.org/2000/svg" height="24px" viewBox="0 -960 960 960" width="24px" fill="#e3e3e3"><path d="M745.15-595.77q-25.78 25.6-58.62 38.84-32.84 13.24-67.76 13.24t-67.46-13.46q-32.54-13.47-58.46-38.62l-75-75q-16.86-17.08-36.97-24.61-20.12-7.54-40.92-7.54-20.81 0-40.89 7.54-20.09 7.53-36.92 24.61L192-601.38l-46.54-46.54 69.39-70.16q26.1-25.92 57.96-38.88 31.85-12.96 66.1-12.96 34.24 0 66.68 12.96 32.44 12.96 58.56 38.88l75 75q16.97 17.18 36.99 25.17 20.01 7.99 42.63 7.99 22.61 0 42.31-8.04 19.69-8.04 36.77-25.12L768-712.46l46.54 46.54-69.39 70.15Zm0 176.92q-25.97 25.93-58.6 38.89T619-367q-34.92 0-67.55-12.96-32.63-12.96-58.6-38.89l-75-75q-16.86-17.07-36.97-24.61-20.12-7.54-40.92-7.54-20.81 0-40.89 7.54-20.09 7.54-36.92 24.61L192-424.46 145.46-470l69.39-71.15q26.1-25.93 58.46-38.89Q305.66-593 339.91-593q34.24 0 66.18 12.96 31.94 12.96 58.06 38.89l75 75q16.74 17.17 36.99 25.16Q596.38-433 619-433t42.19-8.04q19.58-8.04 36.66-25.11L768-535.54 814.54-489l-69.39 70.15Zm-1 176.93q-25.94 25.92-58.08 38.88-32.15 12.96-67.07 12.96-34.92 0-67.58-13.34-32.65-13.35-58.57-39.27l-76-74.23q-16.86-17.08-36.97-24.62-20.12-7.54-40.92-7.54-20.81 0-40.89 7.54-20.09 7.54-36.92 24.62L191-247.54l-45.54-45.54 69.39-71.15q25.98-25.92 58.17-38.89 32.2-12.96 66.28-12.96t66.51 12.96q32.42 12.97 58.34 38.89l75 75q17.08 17.08 36.77 25.11 19.7 8.04 42.31 8.04 22.62 0 42.63-7.99 20.02-7.98 36.99-25.16L768-358.62l45.54 46.54-69.39 70.16Z"/></svg>