<svg xmlns="http://www.w3.org/2000/svg" height="24px" viewBox="0 -960 960 960" width="24px" fill="#e3e3e3"><path d="M520.15-439.85q32.16-32.15 32.16-77.84 0-45.69-32.16-77.85-32.15-32.15-77.84-32.15-45.69 0-77.85 32.15-32.15 32.16-32.15 77.85t32.15 77.84q32.16 32.16 77.85 32.16t77.84-32.16Zm123.62 152.16L533.38-398.85q-20 15.31-42.88 23.23-22.88 7.93-48.19 7.93-62.54 0-106.27-43.73t-43.73-106.27q0-62.54 43.73-106.27t106.27-43.73q62.54 0 106.27 43.73t43.73 106.27q0 25.31-8.04 48.19t-23.35 42.88L672.31-316l-28.54 28.31ZM160-160v-200h40v160h160v40H160Zm440 0v-40h160v-160h40v200H600ZM160-600v-200h200v40H200v160h-40Zm600 0v-160H600v-40h200v200h-40Z"/></svg>